<svg width="116" height="134" viewBox="0 0 116 134" fill="none" xmlns="http://www.w3.org/2000/svg">
<path d="M116 24.6875H0V134.688H116V24.6875Z" fill="#009456"/>
<path d="M82.842 8.99243V24.9435H49.621V8.99243C49.6212 7.9118 49.8344 6.84187 50.2483 5.84363C50.6621 4.84539 51.2686 3.93849 52.0331 3.17468C52.7975 2.41088 53.705 1.80512 54.7036 1.39209C55.7022 0.979066 56.7723 0.766801 57.853 0.767458H74.609C75.6897 0.76667 76.76 0.97888 77.7587 1.39185C78.7574 1.80482 79.665 2.4105 80.4295 3.17432C81.1941 3.93813 81.8006 4.84508 82.2146 5.84339C82.6285 6.84169 82.8417 7.91171 82.842 8.99243Z" fill="white"/>
<path d="M82.842 24.9435V73.3785C82.8414 75.5618 81.9738 77.6555 80.4299 79.1992C78.886 80.7429 76.7922 81.6102 74.609 81.6105H57.853C55.6699 81.6099 53.5763 80.7425 52.0327 79.1989C50.489 77.6552 49.6215 75.5616 49.621 73.3785V24.9435H82.842Z" fill="#FC9B00"/>
</svg>
