<svg width="203" height="267" viewBox="0 0 203 267" fill="none" xmlns="http://www.w3.org/2000/svg">
<path d="M51.5448 55.6899L146.983 55.6899V36.7508L51.5448 36.7508V55.6899Z" fill="#009456"/>
<path d="M85.2269 226.856V210.643C85.2268 203.055 86.7212 195.542 89.6247 188.532C92.5282 181.522 96.784 175.153 102.149 169.788C107.514 164.423 113.884 160.167 120.894 157.263C127.903 154.359 135.417 152.865 143.004 152.865V226.856H85.2269Z" fill="#FC9B00"/>
<path d="M202.564 0.3125H142.719V226.567H202.564V0.3125Z" fill="#DC001E"/>
<path d="M136.138 107.989H146.983C149.859 107.989 152.617 109.131 154.651 111.165C156.685 113.199 157.827 115.957 157.827 118.833C157.827 121.709 156.685 124.468 154.651 126.502C152.617 128.535 149.859 129.678 146.983 129.678H136.138V107.989Z" fill="#25ACBD"/>
<path d="M177.471 0.3125H191.932L151.211 86.3163H136.75L177.471 0.3125Z" fill="white"/>
<path d="M155.235 0.3125H169.694L128.978 86.3163H114.517L155.235 0.3125Z" fill="white"/>
<path d="M18.1278 55.6899H37.067V36.7508H18.1278L18.1278 55.6899Z" fill="#3EB2C3"/>
<path d="M46.3182 41.4206H57.2858" stroke="white" stroke-width="2" stroke-linecap="round" stroke-linejoin="round"/>
<path d="M46.3182 45.5274H57.2858" stroke="white" stroke-width="2" stroke-linecap="round" stroke-linejoin="round"/>
<path d="M46.3182 49.6343H57.2858" stroke="white" stroke-width="2" stroke-linecap="round" stroke-linejoin="round"/>
<path d="M143.004 259.297C136.567 259.297 130.274 257.388 124.922 253.812C119.569 250.235 115.398 245.152 112.934 239.205C110.471 233.258 109.826 226.713 111.082 220.4C112.338 214.086 115.438 208.287 119.99 203.735C124.542 199.183 130.341 196.083 136.654 194.828C142.968 193.572 149.512 194.216 155.46 196.68C161.407 199.143 166.49 203.315 170.066 208.667C173.643 214.02 175.552 220.312 175.552 226.75" stroke="white" stroke-width="2" stroke-linecap="round" stroke-linejoin="round"/>
<path d="M174.522 234.9C173.966 237.032 173.196 239.103 172.224 241.08" stroke="white" stroke-width="2" stroke-linecap="round" stroke-linejoin="round"/>
<path d="M143.004 247.751C154.603 247.751 164.006 238.349 164.006 226.75C164.006 215.151 154.603 205.748 143.004 205.748C131.405 205.748 122.002 215.151 122.002 226.75C122.002 238.349 131.405 247.751 143.004 247.751Z" fill="#009456"/>
<path d="M146.385 255.221L151.395 260.232L146.385 265.242" stroke="white" stroke-width="2" stroke-linecap="round" stroke-linejoin="round"/>
<path d="M6.97382 41.2102L11.9839 46.2203L6.97382 51.2304" stroke="white" stroke-width="2" stroke-linecap="round" stroke-linejoin="round"/>
<path d="M1.96381 41.2102L6.97389 46.2203L1.96381 51.2304" stroke="white" stroke-width="2" stroke-linecap="round" stroke-linejoin="round"/>
</svg>
